<svg xmlns="http://www.w3.org/2000/svg" viewBox="0 0 35 26" width="35" height="26">
	<style>
		tspan { white-space:pre }
		.shp0 { fill: #000000 } 
	</style>
	<path id="Shape 1" class="shp0" d="M2.81 23.64L33.1 23.64L33.1 24.96L2.81 24.96L2.81 23.64ZM32.64 2.88C30.44 1.59 27.94 2.28 26.23 3.07L21.14 5.45L12.38 1.04L7.16 1.26L14.39 8.61L9.78 10.8L4.99 8.97L1.77 10.47L4.68 14.08C4.37 14.44 4.09 14.96 4.35 15.5C4.67 16.21 5.65 16.57 7.25 16.57C7.57 16.57 7.93 16.55 8.31 16.52C10.06 16.38 11.96 15.93 13.15 15.38L31.36 6.88C32.93 6.14 33.72 5.37 33.75 4.52C33.78 4.08 33.6 3.44 32.64 2.88ZM30.8 5.68L12.59 14.18C11.58 14.66 9.92 15.05 8.36 15.19C6.76 15.34 5.91 15.16 5.63 15C5.68 14.92 5.79 14.8 6 14.62L6.47 14.2L3.85 10.95L5.04 10.4L9.84 12.23L16.63 9L10.18 2.45L12.09 2.37L21.12 6.92L26.79 4.27C28.86 3.3 30.61 3.22 31.98 4.02L31.98 4.02C32.32 4.22 32.44 4.39 32.44 4.46C32.44 4.47 32.4 4.94 30.8 5.68Z" />
</svg>