<svg xmlns="http://www.w3.org/2000/svg" viewBox="0 0 29 27" width="29" height="27">
	<style>
		tspan { white-space:pre }
		.shp0 { fill: #000000 } 
	</style>
	<path id="Forma 1" class="shp0" d="M2.92 26L27.08 26C27.6 26 28 25.6 28 25.08L28 4.62C28 4.1 27.6 3.7 27.08 3.7L22.54 3.7L22.54 2.92C22.54 2.4 22.13 2 21.62 2C21.1 2 20.7 2.4 20.7 2.92L20.7 3.7L9.46 3.7L9.46 2.92C9.46 2.4 9.05 2 8.54 2C8.02 2 7.62 2.4 7.62 2.92L7.62 3.7L2.92 3.7C2.4 3.7 2 4.1 2 4.62L2 25.1C2 25.6 2.43 26 2.92 26ZM3.84 5.53L7.62 5.53L7.62 6.03C7.62 6.54 8.02 6.94 8.54 6.94C9.05 6.94 9.46 6.54 9.46 6.03L9.46 5.53L20.7 5.53L20.7 6.03C20.7 6.54 21.1 6.94 21.62 6.94C22.13 6.94 22.54 6.54 22.54 6.03L22.54 5.53L26.19 5.53L26.19 7.9L3.84 7.9L3.84 5.53ZM3.84 9.74L26.16 9.74L26.16 24.19L3.84 24.19L3.84 9.74ZM21.62 13.94L8.4 13.94C7.89 13.94 7.49 14.35 7.49 14.86C7.49 15.37 7.89 15.78 8.4 15.78L21.62 15.78C22.13 15.78 22.54 15.37 22.54 14.86C22.54 14.35 22.13 13.94 21.62 13.94ZM15.01 18.37L8.4 18.37C7.89 18.37 7.49 18.78 7.49 19.29C7.49 19.8 7.89 20.21 8.4 20.21L15.01 20.21C15.53 20.21 15.93 19.8 15.93 19.29C15.93 18.78 15.53 18.37 15.01 18.37Z" />
</svg>