<svg xmlns="http://www.w3.org/2000/svg" viewBox="0 0 94 69" width="94" height="69">
	<style>
		tspan { white-space:pre }
		.shp0 { fill: #ff7512 } 
	</style>
	<path id="flight" class="shp0" d="M91.92 6.39C91.69 5.75 91.09 5.33 90.41 5.33L50.27 5.33C49.87 5.33 49.48 5.48 49.18 5.75L35.72 18.14L18.98 1.46C18.96 1.44 18.94 1.43 18.92 1.41C18.86 1.36 18.8 1.32 18.73 1.27C18.66 1.23 18.6 1.18 18.52 1.15C18.5 1.14 18.48 1.12 18.46 1.11C18.42 1.09 18.37 1.09 18.32 1.08C18.24 1.05 18.16 1.03 18.07 1.01C18 1 17.92 1 17.85 1C17.77 1 17.7 1 17.62 1.01C17.53 1.03 17.45 1.05 17.37 1.08C17.33 1.09 17.28 1.09 17.23 1.11C17.21 1.12 17.19 1.14 17.17 1.15C17.1 1.18 17.03 1.23 16.96 1.28C16.89 1.32 16.83 1.36 16.77 1.42C16.75 1.43 16.73 1.44 16.71 1.46L2.51 15.61C2.05 16.07 1.91 16.76 2.16 17.36C2.41 17.96 2.99 18.35 3.64 18.35L16.24 18.35L16.24 36.78C16.24 36.78 16.24 36.78 16.24 36.79C16.24 36.79 16.24 36.79 16.24 36.8C16.24 36.81 16.25 36.82 16.25 36.84C16.26 37.03 16.3 37.2 16.37 37.37C16.39 37.42 16.41 37.47 16.44 37.51C16.52 37.67 16.62 37.81 16.75 37.93C16.77 37.94 16.77 37.96 16.79 37.98L34.21 53.2C34.22 53.21 34.24 53.22 34.25 53.23C34.33 53.48 34.44 53.71 34.63 53.9L48.31 67.53C48.62 67.83 49.03 68 49.44 68C49.65 68 49.86 67.96 50.06 67.87C50.66 67.63 51.05 67.04 51.05 66.39L51.05 41.17L91.43 8.17C91.95 7.74 92.15 7.03 91.92 6.39ZM19.45 32.91L19.45 16.75L19.45 6.46L32.72 19.68L19.45 32.91ZM7.52 15.14L16.24 6.46L16.24 15.14L7.52 15.14ZM47.83 62.52L38.11 52.84L47.83 44.27L47.83 62.52ZM35.3 49.9L20.25 36.74L50.9 8.53L85.91 8.53L35.3 49.9Z" />
</svg>