<svg xmlns="http://www.w3.org/2000/svg" viewBox="0 0 42 42" width="42" height="42">
	<style>
		tspan { white-space:pre }
		.shp0 { fill: #000000 } 
	</style>
	<path id="Shape 1" class="shp0" d="M5.82 20.23L3.27 20.23C2.57 20.23 2 20.8 2 21.5C2 22.2 2.57 22.77 3.27 22.77L5.82 22.77C6.52 22.77 7.09 22.2 7.09 21.5C7.09 20.8 6.52 20.23 5.82 20.23ZM39.73 20.23L37.18 20.23C36.48 20.23 35.91 20.8 35.91 21.5C35.91 22.2 36.48 22.77 37.18 22.77L39.73 22.77C40.43 22.77 41 22.2 41 21.5C41 20.8 40.43 20.23 39.73 20.23ZM21.5 35.91C20.8 35.91 20.23 36.48 20.23 37.18L20.23 39.73C20.23 40.43 20.8 41 21.5 41C22.2 41 22.77 40.43 22.77 39.73L22.77 37.18C22.77 36.48 22.2 35.91 21.5 35.91ZM21.5 2C20.8 2 20.23 2.57 20.23 3.27L20.23 5.81C20.23 6.52 20.8 7.09 21.5 7.09C22.2 7.09 22.77 6.52 22.77 5.81L22.77 3.27C22.77 2.57 22.2 2 21.5 2ZM31.72 36.65L30.44 34.45C30.09 33.84 29.31 33.63 28.71 33.98C28.1 34.33 27.89 35.11 28.24 35.72L29.51 37.92C29.86 38.53 30.64 38.74 31.25 38.39C31.86 38.04 32.07 37.26 31.72 36.65ZM14.76 7.28L13.49 5.08C13.14 4.47 12.36 4.26 11.75 4.61C11.14 4.96 10.93 5.74 11.28 6.35L12.56 8.55C12.91 9.16 13.69 9.37 14.29 9.02C14.9 8.67 15.11 7.89 14.76 7.28ZM37.92 29.51L35.72 28.24C35.11 27.89 34.33 28.1 33.98 28.71C33.63 29.31 33.84 30.09 34.45 30.44L36.65 31.72C37.26 32.07 38.04 31.86 38.39 31.25C38.74 30.64 38.53 29.86 37.92 29.51ZM8.55 12.56L6.35 11.28C5.74 10.93 4.96 11.14 4.61 11.75C4.26 12.36 4.47 13.14 5.08 13.49L7.28 14.76C7.89 15.11 8.67 14.9 9.02 14.29C9.37 13.68 9.16 12.91 8.55 12.56ZM38.39 11.75C38.04 11.14 37.26 10.93 36.65 11.28L34.45 12.56C33.84 12.91 33.63 13.68 33.98 14.29C34.33 14.9 35.11 15.11 35.72 14.76L37.92 13.49C38.53 13.14 38.74 12.36 38.39 11.75ZM9.02 28.71C8.67 28.1 7.89 27.89 7.28 28.24L5.08 29.51C4.47 29.86 4.26 30.64 4.61 31.25C4.96 31.86 5.74 32.07 6.35 31.72L8.55 30.44C9.16 30.09 9.37 29.31 9.02 28.71ZM31.25 4.61C30.64 4.26 29.86 4.47 29.51 5.08L28.24 7.28C27.89 7.89 28.1 8.67 28.71 9.02C29.31 9.37 30.09 9.16 30.44 8.55L31.72 6.35C32.07 5.74 31.86 4.96 31.25 4.61ZM14.29 33.98C13.69 33.63 12.91 33.84 12.56 34.45L11.28 36.65C10.93 37.26 11.14 38.04 11.75 38.39C12.36 38.74 13.14 38.53 13.49 37.92L14.76 35.72C15.11 35.11 14.9 34.33 14.29 33.98ZM21.5 9.63C14.96 9.63 9.63 14.95 9.63 21.5C9.63 28.04 14.96 33.37 21.5 33.37C28.04 33.37 33.37 28.04 33.37 21.5C33.37 14.95 28.04 9.63 21.5 9.63ZM21.5 30.83C16.36 30.83 12.17 26.64 12.17 21.5C12.17 16.36 16.36 12.17 21.5 12.17C26.64 12.17 30.83 16.36 30.83 21.5C30.83 26.64 26.64 30.83 21.5 30.83ZM21.5 14.72C17.76 14.72 14.72 17.76 14.72 21.5C14.72 22.2 15.29 22.77 15.99 22.77C16.69 22.77 17.26 22.2 17.26 21.5C17.26 19.16 19.16 17.26 21.5 17.26C22.2 17.26 22.77 16.69 22.77 15.99C22.77 15.29 22.2 14.72 21.5 14.72Z" />
</svg>