<svg xmlns="http://www.w3.org/2000/svg" viewBox="0 0 81 74" width="81" height="74">
	<style>
		tspan { white-space:pre }
		.shp0 { fill: #ff7512 } 
	</style>
	<path id="Shape 1" class="shp0" d="M32.6 40.13L48.4 40.13C49.19 40.13 49.72 39.6 49.72 38.81L49.72 30.93C49.72 30.14 49.19 29.61 48.4 29.61L32.6 29.61C31.81 29.61 31.28 30.14 31.28 30.93L31.28 38.81C31.28 39.6 31.81 40.13 32.6 40.13ZM33.92 32.24L47.08 32.24L47.08 37.5L33.92 37.5L33.92 32.24ZM76.05 15.15L69.47 15.15L65 15L58 15L58 6C58 3.76 55.9 2 53.67 2L27.33 2C25.09 2 23 3.76 23 6L23 15L16.8 15.15L11.53 15.15L4.95 15.15C2.71 15.15 1 16.86 1 19.09L1 26.85L1 62.48L1 69.06C1 71.29 2.71 73 4.95 73L12.85 73L19.43 73L24.7 73L56.3 73L61.57 73L68.15 73L76.05 73C78.29 73 80 71.29 80 69.06L80 62.48L80 26.98L80 19.09C80 16.86 78.29 15.15 76.05 15.15ZM62.88 70.37L62.88 28.3L64.2 28.3C64.99 28.3 65.52 27.77 65.52 26.98L65.52 17.78L68.26 17.78C68.97 22.68 72.61 26.73 77.37 28.05L77.37 61.28C72.46 61.99 68.4 65.62 67.08 70.37L62.88 70.37L62.88 70.37ZM76.05 17.78C76.84 17.78 77.37 18.3 77.37 19.09L77.37 25.27C74.07 24.09 71.57 21.2 70.91 17.78L76.05 17.78L76.05 17.78ZM62.88 25.67L61.57 25.67L56.3 25.67L54.98 25.67L54.98 17.78L56.3 17.78L62.88 17.78L62.88 25.67ZM27.33 28.3C28.12 28.3 28 27.79 28 27L28 18L52.35 17.78L52.35 26.98C52.35 27.77 52.88 28.3 53.67 28.3L54.98 28.3L54.98 70.37L26.02 70.37L26.02 28.3L27.33 28.3L27.33 28.3ZM26.02 5.94C26.02 5.16 26.21 5 27 5L54 5C54.79 5 54.98 5.16 54.98 5.94L54.98 15.15L53.67 15.15L27.33 15.15L26.02 15.15L26.02 5.94L26.02 5.94ZM25 18L26 18L26 26L25 26L19 26L18 26L18 18L25 18ZM13.81 70.37C12.59 65.67 8.5 62.16 3.63 61.33L3.63 27.92C8.38 26.62 11.92 22.66 12.71 17.78L16 18L16 27C16 27.79 16.01 28.3 16.8 28.3L18.12 28.3L18.12 70.37L13.81 70.37ZM3.63 19.09C3.63 18.3 4.16 17.78 4.95 17.78L9.95 17.78C9.29 21.2 6.92 23.96 3.63 25.14L3.63 19.09L3.63 19.09ZM4.95 70.37C4.16 70.37 3.63 69.84 3.63 69.06L3.63 64.06C7.06 64.72 9.95 67.22 11.14 70.37L4.95 70.37L4.95 70.37ZM20.75 70.37L20.75 28.3L23.38 28.3L23.38 70.37L20.75 70.37ZM57.62 70.37L57.62 28.3L60.25 28.3L60.25 70.37L57.62 70.37ZM69.86 70.37C71.05 67.08 73.94 64.72 77.37 64.06L77.37 69.06C77.37 69.71 76.71 70.37 76.05 70.37L69.86 70.37L69.86 70.37Z" />
</svg>