<svg xmlns="http://www.w3.org/2000/svg" viewBox="0 0 78 79" width="78" height="79">
	<style>
		tspan { white-space:pre }
		.shp0 { fill: #ff7512 } 
	</style>
	<path id="Shape 1" class="shp0" d="M21.17 24.3L57.83 24.3L57.83 27.61L21.17 27.61L21.17 24.3ZM54.5 29.26L57.83 29.26L57.83 32.56L54.5 32.56L54.5 29.26ZM21.17 29.26L24.5 29.26L24.5 32.56L21.17 32.56L21.17 29.26ZM37.83 13.57L41.17 13.57L41.17 16.87L37.83 16.87L37.83 13.57ZM42.83 13.57L46.17 13.57L46.17 16.87L42.83 16.87L42.83 13.57ZM32.83 13.57L36.17 13.57L36.17 16.87L32.83 16.87L32.83 13.57ZM27.83 13.57L31.17 13.57L31.17 16.87L27.83 16.87L27.83 13.57ZM47.83 13.57L51.17 13.57L51.17 16.87L47.83 16.87L47.83 13.57ZM69.97 73.24C68.5 74.01 67.24 74.68 64.59 74.69L74.41 45.48C74.68 44.67 74.3 43.8 73.52 43.45L64.5 39.43L64.5 23.48C64.5 20.74 62.26 18.52 59.5 18.52L57 18.52L57 10.26C57 9.35 56.25 8.61 55.33 8.61L41.17 8.61L41.17 2L37.83 2L37.83 8.61L23.67 8.61C22.75 8.61 22 9.35 22 10.26L22 18.52L19.5 18.52C16.74 18.52 14.5 20.74 14.5 23.48L14.5 39.43L5.48 43.45C4.7 43.8 4.31 44.67 4.59 45.48L14.41 74.69C11.76 74.68 10.5 74.01 9.03 73.24C7.4 72.37 5.54 71.39 2 71.39L2 74.7C4.71 74.7 5.99 75.37 7.47 76.15C9.1 77.02 10.96 78 14.5 78C15.44 78 16.24 77.94 16.94 77.81C18.99 77.49 20.34 76.78 21.53 76.15C23.01 75.37 24.29 74.7 26.98 74.7C29.69 74.7 30.97 75.37 32.45 76.15C34.09 77.02 35.94 78 39.48 78C43.03 78 44.88 77.02 46.52 76.15C48 75.37 49.28 74.7 51.98 74.7C54.69 74.7 55.97 75.37 57.45 76.15C58.65 76.78 60 77.49 62.06 77.81C62.76 77.94 63.56 78 64.5 78C68.04 78 69.9 77.02 71.53 76.15C73.01 75.37 74.29 74.7 77 74.7L77 71.39C73.46 71.39 71.6 72.37 69.97 73.24ZM70.78 45.85L69.58 49.4L41.17 36.46L41.17 32.64L70.78 45.85ZM25.33 11.91L53.67 11.91L53.67 18.52L25.33 18.52L25.33 11.91ZM17.83 23.48C17.83 22.57 18.58 21.83 19.5 21.83L23.67 21.83L55.33 21.83L59.5 21.83C60.42 21.83 61.17 22.57 61.17 23.48L61.17 37.94L40.18 28.58C39.75 28.39 39.25 28.39 38.82 28.58L17.83 37.94L17.83 23.48L17.83 23.48ZM8.22 45.85L37.83 32.64L37.83 36.46L9.42 49.4L8.22 45.85ZM61.23 74.23C60.42 73.97 59.75 73.62 59.02 73.23C57.38 72.37 55.52 71.39 51.98 71.39C48.44 71.39 46.59 72.37 44.95 73.24C43.47 74.02 42.19 74.7 39.48 74.7C36.78 74.7 35.5 74.02 34.02 73.24C32.38 72.37 30.53 71.39 26.98 71.39C23.45 71.39 21.6 72.37 19.97 73.23C19.23 73.62 18.57 73.97 17.77 74.23L10.48 52.56L37.83 40.1L37.83 59.83L41.17 59.83L41.17 40.1L68.52 52.56L61.23 74.23Z" />
</svg>