<svg width="44" height="44" viewBox="0 0 44 44" fill="none" xmlns="http://www.w3.org/2000/svg">
<circle cx="22" cy="22" r="21" stroke="black" stroke-width="2"/>
<circle cx="15.5" cy="17.5" r="2.5" fill="black"/>
<ellipse cx="28.5" cy="16.5" rx="2.5" ry="1.5" fill="black"/>
<path d="M23.5 24.5C25.1116 25.2937 27.1435 25.4551 25.1116 28.2381C22 32.5 29.5 28.5 26.5 35" stroke="black" stroke-width="2" stroke-linecap="round"/>
<path d="M34.5 35C34.2865 35 34.0806 34.9188 33.9201 34.7714C33.3142 34.2156 32.7299 33.6932 32.2145 33.2324L32.2119 33.23C30.7007 31.879 29.3957 30.7123 28.4877 29.563C27.4728 28.2782 27 27.06 27 25.7291C27 24.4361 27.4226 23.2433 28.19 22.3701C28.9664 21.4866 30.0319 21 31.1904 21C32.0562 21 32.8492 21.2872 33.5472 21.8535C33.8994 22.1393 34.2187 22.4892 34.5 22.8972C34.7814 22.4892 35.1006 22.1393 35.4529 21.8535C36.1509 21.2872 36.9439 21 37.8097 21C38.9681 21 40.0337 21.4866 40.8102 22.3701C41.5775 23.2433 42 24.4361 42 25.7291C42 27.06 41.5274 28.2782 40.5124 29.5629C39.6044 30.7123 38.2996 31.8789 36.7886 33.2298C36.2722 33.6913 35.6871 34.2145 35.0798 34.7717C34.9194 34.9188 34.7134 35 34.5 35ZM31.1904 21.9218C30.2802 21.9218 29.4441 22.3029 28.8359 22.9949C28.2186 23.6973 27.8786 24.6683 27.8786 25.7291C27.8786 26.8484 28.2751 27.8494 29.1642 28.9749C30.0235 30.0627 31.3017 31.2054 32.7817 32.5285L32.7844 32.5309C33.3018 32.9935 33.8883 33.5179 34.4987 34.0778C35.1128 33.5168 35.7003 32.9916 36.2187 32.5283C37.6985 31.2051 38.9766 30.0627 39.8359 28.9749C40.7249 27.8494 41.1214 26.8484 41.1214 25.7291C41.1214 24.6683 40.7814 23.6973 40.1641 22.9949C39.556 22.3029 38.7198 21.9218 37.8097 21.9218C37.143 21.9218 36.5309 22.1441 35.9904 22.5826C35.5087 22.9735 35.1731 23.4676 34.9764 23.8134C34.8753 23.9912 34.6972 24.0973 34.5 24.0973C34.3028 24.0973 34.1247 23.9912 34.0236 23.8134C33.827 23.4676 33.4914 22.9735 33.0096 22.5826C32.4691 22.1441 31.857 21.9218 31.1904 21.9218Z" fill="black"/>
<path d="M27.5 25C27.5 29.8 32.1667 33.5 34.5 34.5C40.9 30.5 41.8333 26.3333 41.5 25C39.5 20.2 36 22 34.5 23.5C31.3 19.9 28.5 21.5 27.5 25Z" fill="black"/>
</svg>
