<svg xmlns="http://www.w3.org/2000/svg" viewBox="0 0 38 37" width="38" height="37">
	<style>
		tspan { white-space:pre }
		.shp0 { fill: #000000 } 
	</style>
	<path id="Forma 1" class="shp0" d="M35.52 22.1C35.11 21.78 34.56 21.74 34.12 22C32.01 23.21 29.78 23.83 27.49 23.83C20.15 23.83 14.17 17.85 14.17 10.5C14.17 8.2 14.79 5.98 16 3.89C16.26 3.44 16.22 2.89 15.9 2.48C15.59 2.08 15.06 1.91 14.56 2.05C11.02 3.07 7.82 5.24 5.57 8.16C3.23 11.19 2 14.82 2 18.65C2 28.22 9.78 36 19.35 36C23.18 36 26.81 34.76 29.84 32.43C32.76 30.18 34.93 26.99 35.95 23.44C36.09 22.95 35.92 22.42 35.52 22.1ZM19.35 33.48C11.17 33.48 4.52 26.83 4.52 18.65C4.52 13.13 7.67 8.11 12.47 5.59C11.93 7.18 11.66 8.82 11.66 10.5C11.66 19.24 18.76 26.34 27.49 26.34C29.17 26.34 30.82 26.07 32.41 25.52C29.89 30.32 24.87 33.48 19.35 33.48Z" />
</svg>