<svg xmlns="http://www.w3.org/2000/svg" viewBox="0 0 45 38" width="45" height="38">
	<style>
		tspan { white-space:pre }
		.shp0 { fill: #000000 } 
	</style>
	<path id="Forma 1" class="shp0" d="M28.28 18.53C25.13 13.23 25.35 6.95 28.28 2C25.39 2 22.45 2.7 19.76 4.2C13.97 7.46 10.9 13.51 11.3 19.59C12.67 19.63 13.97 20.11 15.02 20.96C16.01 20.42 17.11 20.15 18.25 20.15C21.29 20.15 23.92 22.14 24.74 24.92C26.89 25.56 28.4 27.48 28.4 29.74C28.4 32.1 26.72 34.08 24.46 34.63C28.51 35.54 32.91 35.03 36.79 32.86C39.48 31.35 41.57 29.23 43.01 26.79C37.14 26.78 31.43 23.83 28.28 18.53ZM26.98 29.74C26.98 27.82 25.46 26.26 23.54 26.09C23.21 23.52 20.98 21.53 18.25 21.53C16.94 21.53 15.77 22 14.84 22.75C13.96 21.66 12.62 20.95 11.09 20.95C8.81 20.95 6.91 22.51 6.44 24.58C3.96 24.75 1.99 26.74 1.99 29.19C1.99 31.75 4.13 33.82 6.77 33.82C7.33 33.82 7.86 33.71 8.36 33.54C9.23 34.7 10.62 35.46 12.21 35.46C13.18 35.46 14.08 35.17 14.84 34.69C15.7 35.5 16.87 36.01 18.16 36.01C20.07 36.01 21.7 34.91 22.46 33.34C22.7 33.39 22.94 33.41 23.19 33.41C25.28 33.42 26.98 31.77 26.98 29.74ZM37.38 20.58L38.06 19.13L39.68 18.85L38.47 17.77L38.69 16.18L37.26 16.97L35.79 16.28L36.12 17.84L34.97 18.99L36.61 19.17L37.38 20.58ZM4.71 16.67L5.87 16.09L7.02 16.69L6.81 15.44L7.76 14.56L6.47 14.37L5.9 13.22L5.31 14.36L4.01 14.53L4.94 15.42L4.71 16.67ZM31.12 13.84L31.65 14.81L32.12 13.81L33.23 13.62L32.4 12.88L32.55 11.79L31.57 12.33L30.56 11.85L30.79 12.93L30 13.72L31.12 13.84ZM36.47 10.98L36.79 11.57L37.08 10.96L37.76 10.84L37.25 10.38L37.35 9.72L36.74 10.05L36.12 9.76L36.26 10.42L35.78 10.9L36.47 10.98ZM11.93 6.98L12.26 7.58L12.55 6.97L13.23 6.85L12.72 6.39L12.81 5.73L12.21 6.06L11.59 5.77L11.73 6.42L11.25 6.91L11.93 6.98Z" />
</svg>