<svg width="44" height="44" viewBox="0 0 44 44" fill="none" xmlns="http://www.w3.org/2000/svg">
<path fill-rule="evenodd" clip-rule="evenodd" d="M22 42C33.0457 42 42 33.0457 42 22C42 10.9543 33.0457 2 22 2C10.9543 2 2 10.9543 2 22C2 33.0457 10.9543 42 22 42ZM22 44C34.1503 44 44 34.1503 44 22C44 9.84974 34.1503 0 22 0C9.84974 0 0 9.84974 0 22C0 34.1503 9.84974 44 22 44Z" fill="black"/>
<path d="M18 17.5C18 18.8807 16.8807 20 15.5 20C14.1193 20 13 18.8807 13 17.5C13 16.1193 14.1193 15 15.5 15C16.8807 15 18 16.1193 18 17.5Z" fill="black"/>
<path d="M31 17.5C31 18.8807 29.8807 20 28.5 20C27.1193 20 26 18.8807 26 17.5C26 16.1193 27.1193 15 28.5 15C29.8807 15 31 16.1193 31 17.5Z" fill="black"/>
<path fill-rule="evenodd" clip-rule="evenodd" d="M31.832 33.705C32.1384 33.2455 32.0142 32.6246 31.5547 32.3183C27.7221 29.7632 23.6429 29.2365 20.1935 29.606C16.771 29.9727 13.8949 31.2292 12.4 32.3503C11.9582 32.6817 11.8686 33.3085 12.2 33.7503C12.5314 34.1922 13.1582 34.2817 13.6 33.9503C14.7718 33.0715 17.2957 31.928 20.4065 31.5947C23.4904 31.2642 27.0779 31.7375 30.4453 33.9824C30.9048 34.2887 31.5257 34.1646 31.832 33.705Z" fill="black"/>
</svg>
