<svg xmlns="http://www.w3.org/2000/svg" viewBox="0 0 30 27" width="30" height="27">
	<style>
		tspan { white-space:pre }
		.shp0 { fill: #ffffff } 
	</style>
	<path id="Forma 1" class="shp0" d="M27.95 19.44C27.78 18.92 27.21 18.64 26.68 18.81L25.37 19.22C26.17 17.6 26.59 15.82 26.59 14C26.59 7.38 21.08 2 14.3 2C7.52 2 2 7.38 2 14C2 20.62 7.52 26 14.3 26C14.85 26 15.31 25.56 15.31 25.02C15.31 24.47 14.85 24.03 14.3 24.03C8.63 24.03 4.02 19.53 4.02 14C4.02 8.47 8.63 3.97 14.3 3.97C19.97 3.97 24.58 8.47 24.58 14C24.58 15.52 24.23 17.02 23.55 18.37L23.1 17.03C22.93 16.51 22.36 16.23 21.83 16.4C21.31 16.56 21.02 17.12 21.19 17.63L22.38 21.2C22.51 21.62 22.91 21.88 23.33 21.88C23.44 21.88 23.54 21.87 23.65 21.84L27.3 20.68C27.83 20.51 28.12 19.95 27.95 19.44Z" />
</svg>