<svg xmlns="http://www.w3.org/2000/svg" viewBox="0 0 56 64" width="56" height="64">
	<style>
		tspan { white-space:pre }
		.shp0 { fill: #ff7512 } 
	</style>
	<path id="restaurents" class="shp0" d="M17.9 5.81C16.04 3.35 13.52 2 10.82 2C8.12 2 5.61 3.35 3.75 5.81C1.98 8.15 1 11.23 1 14.5C1 17.77 1.98 20.85 3.75 23.19C4.78 24.55 6.02 25.58 7.38 26.22L5.3 57.16C5.2 58.66 5.74 60.16 6.78 61.26C7.82 62.37 9.3 63 10.82 63C12.35 63 13.82 62.37 14.86 61.26C15.91 60.16 16.45 58.66 16.35 57.16L14.27 26.22C15.63 25.58 16.86 24.56 17.9 23.19C19.67 20.85 20.65 17.77 20.65 14.5C20.65 11.23 19.67 8.15 17.9 5.81ZM12.8 59.35C12.28 59.9 11.58 60.2 10.82 60.2C10.07 60.2 9.36 59.9 8.84 59.35C8.33 58.8 8.07 58.09 8.12 57.34L10.16 26.97C10.38 26.99 10.6 27 10.82 27C11.04 27 11.27 26.99 11.49 26.97L13.53 57.34C13.58 58.09 13.32 58.8 12.8 59.35ZM10.82 24.2C10.32 24.2 9.82 24.12 9.35 23.98C9.31 23.97 9.27 23.95 9.23 23.94C6.14 22.94 3.83 19.09 3.83 14.5C3.83 9.15 6.96 4.8 10.82 4.8C14.68 4.8 17.82 9.15 17.82 14.5C17.82 19.85 14.68 24.2 10.82 24.2ZM54 38.45L54 3.57L53.99 3.58C54.03 3.27 53.97 2.95 53.79 2.66C53.38 2.01 52.51 1.8 51.84 2.21C46.08 5.74 42.64 11.85 42.64 18.56C42.64 18.56 42.64 18.56 42.64 18.56L42.64 36.88C42.64 38.49 43.93 39.8 45.55 39.85L45.55 58.79C45.55 61.1 47.44 62.98 49.77 62.98C52.1 62.98 54 61.1 54 58.79L54 38.45C54 38.45 54 38.45 54 38.45ZM45.64 37.05C45.54 37.05 45.46 36.98 45.46 36.88L45.46 18.56C45.46 18.56 45.46 18.56 45.46 18.56C45.46 13.72 47.56 9.25 51.17 6.15L51.17 37.05L45.64 37.05ZM51.18 58.79C51.18 59.56 50.55 60.18 49.77 60.18C49 60.18 48.37 59.56 48.37 58.79L48.37 39.85L51.18 39.85L51.18 58.79L51.18 58.79ZM37.34 2C36.56 2 35.93 2.63 35.93 3.4L35.93 19.29L32.33 19.29L32.33 3.4C32.33 2.63 31.7 2 30.92 2C30.14 2 29.5 2.63 29.5 3.4L29.5 19.29L25.9 19.29L25.9 3.4C25.9 2.63 25.27 2 24.49 2C23.71 2 23.08 2.63 23.08 3.4L23.08 23.65C23.08 25.93 24.95 27.79 27.25 27.79L27.51 27.79L25.52 57.29C25.42 58.76 25.95 60.23 26.97 61.3C27.99 62.38 29.43 63 30.92 63C32.41 63 33.85 62.38 34.86 61.3C35.88 60.23 36.41 58.76 36.31 57.29L34.33 27.79L34.58 27.79C36.88 27.79 38.76 25.93 38.76 23.65L38.76 3.4C38.76 2.63 38.12 2 37.34 2ZM32.8 59.39C32.31 59.91 31.64 60.2 30.92 60.2C30.2 60.2 29.53 59.91 29.03 59.39C28.54 58.87 28.29 58.19 28.34 57.48L30.34 27.79L31.5 27.79L33.49 57.48C33.54 58.19 33.29 58.87 32.8 59.39ZM35.93 23.65C35.93 24.39 35.32 24.99 34.58 24.99L28.97 24.99C28.97 24.99 28.97 24.99 28.96 24.99L27.25 24.99C26.51 24.99 25.9 24.39 25.9 23.65L25.9 22.09L35.93 22.09L35.93 23.65Z" />
</svg>