<svg width="44" height="44" viewBox="0 0 44 44" fill="none" xmlns="http://www.w3.org/2000/svg">
<path fill-rule="evenodd" clip-rule="evenodd" d="M22 42C33.0457 42 42 33.0457 42 22C42 10.9543 33.0457 2 22 2C10.9543 2 2 10.9543 2 22C2 33.0457 10.9543 42 22 42ZM22 44C34.1503 44 44 34.1503 44 22C44 9.84974 34.1503 0 22 0C9.84974 0 0 9.84974 0 22C0 34.1503 9.84974 44 22 44Z" fill="black"/>
<path d="M18 17.5C18 18.8807 16.8807 20 15.5 20C14.1193 20 13 18.8807 13 17.5C13 16.1193 14.1193 15 15.5 15C16.8807 15 18 16.1193 18 17.5Z" fill="black"/>
<path d="M31 17.5C31 18.8807 29.8807 20 28.5 20C27.1193 20 26 18.8807 26 17.5C26 16.1193 27.1193 15 28.5 15C29.8807 15 31 16.1193 31 17.5Z" fill="black"/>
<path fill-rule="evenodd" clip-rule="evenodd" d="M31.8321 29.9453C32.1384 30.4048 32.0142 31.0257 31.5547 31.332C27.7221 33.8871 23.6429 34.4139 20.1935 34.0443C16.771 33.6776 13.8949 32.4211 12.4 31.3C11.9582 30.9686 11.8686 30.3418 12.2 29.9C12.5314 29.4582 13.1582 29.3686 13.6 29.7C14.7718 30.5788 17.2957 31.7224 20.4065 32.0557C23.4904 32.3861 27.0779 31.9128 30.4453 29.6679C30.9048 29.3616 31.5257 29.4858 31.8321 29.9453Z" fill="black"/>
</svg>
