<svg width="44" height="44" viewBox="0 0 44 44" fill="none" xmlns="http://www.w3.org/2000/svg">
<path fill-rule="evenodd" clip-rule="evenodd" d="M22 42C33.0457 42 42 33.0457 42 22C42 10.9543 33.0457 2 22 2C10.9543 2 2 10.9543 2 22C2 33.0457 10.9543 42 22 42ZM22 44C34.1503 44 44 34.1503 44 22C44 9.84974 34.1503 0 22 0C9.84974 0 0 9.84974 0 22C0 34.1503 9.84974 44 22 44Z" fill="black"/>
<path d="M18 17.5C18 18.8807 16.8807 20 15.5 20C14.1193 20 13 18.8807 13 17.5C13 16.1193 14.1193 15 15.5 15C16.8807 15 18 16.1193 18 17.5Z" fill="black"/>
<path d="M31 17.5C31 18.8807 29.8807 20 28.5 20C27.1193 20 26 18.8807 26 17.5C26 16.1193 27.1193 15 28.5 15C29.8807 15 31 16.1193 31 17.5Z" fill="black"/>
<path fill-rule="evenodd" clip-rule="evenodd" d="M33.8833 25.0971C34.3819 25.3346 34.5937 25.9313 34.3563 26.4299C32.3761 30.5888 29.1441 33.1327 25.9932 34.5842C22.8669 36.0244 19.7534 36.4205 17.8951 36.2245C17.3459 36.1666 16.9476 35.6744 17.0055 35.1251C17.0635 34.5759 17.5557 34.1776 18.1049 34.2355C19.5615 34.3892 22.3148 34.0767 25.1564 32.7677C27.9734 31.47 30.8107 29.2241 32.5505 25.5701C32.7879 25.0715 33.3846 24.8597 33.8833 25.0971Z" fill="black"/>
</svg>
