<svg xmlns="http://www.w3.org/2000/svg" viewBox="0 0 24 24" width="24" height="24">
	<style>
		tspan { white-space:pre }
		.shp0 { fill: #000000 } 
	</style>
	<path id="Forma 1" class="shp0" d="M12 1C5.94 1 1 5.93 1 12C1 18.06 5.94 23 12 23C18.06 23 23 18.06 23 12C23 5.93 18.06 1 12 1ZM3.02 12C3.02 7.05 7.05 3.02 12 3.02C14.23 3.02 16.27 3.84 17.85 5.19L5.19 17.85C3.84 16.27 3.02 14.23 3.02 12ZM12 20.98C10 20.98 8.16 20.33 6.66 19.22L19.22 6.66C20.33 8.16 20.98 10 20.98 12C20.98 16.95 16.95 20.98 12 20.98Z" />
</svg>