<svg xmlns="http://www.w3.org/2000/svg" viewBox="0 0 48 32" width="48" height="32">
	<style>
		tspan { white-space:pre }
		.shp0 { fill: #000000 } 
	</style>
	<path id="Forma 1" class="shp0" d="M24.5 9.99C25.59 9.99 26.48 9.1 26.48 8.01L26.48 3.99C26.48 2.89 25.59 2 24.5 2C23.41 2 22.52 2.89 22.52 3.99L22.52 8.01C22.52 9.15 23.41 9.99 24.5 9.99ZM36.15 14.76C36.64 14.76 37.14 14.56 37.53 14.17L40.41 11.29C41.2 10.49 41.2 9.25 40.41 8.46C39.62 7.66 38.38 7.66 37.58 8.46L34.71 11.34C33.92 12.13 33.92 13.37 34.71 14.17C35.16 14.56 35.65 14.76 36.15 14.76ZM11.47 14.17C11.81 14.56 12.36 14.76 12.85 14.76C13.35 14.76 13.84 14.56 14.24 14.17C15.03 13.37 15.03 12.13 14.24 11.34L11.37 8.46C10.57 7.66 9.33 7.66 8.54 8.46C7.75 9.25 7.75 10.49 8.54 11.29L11.47 14.17ZM45.02 27.03L3.98 27.03C2.89 27.03 2 27.92 2 29.01C2 30.11 2.89 31 3.98 31L45.02 31C46.11 31 47 30.11 47 29.01C47 27.92 46.11 27.03 45.02 27.03ZM15.38 24.1C16.42 24.4 17.51 23.75 17.81 22.66C18.6 19.58 21.38 17.44 24.55 17.44C27.72 17.44 30.5 19.58 31.29 22.66C31.54 23.55 32.33 24.15 33.22 24.15C33.37 24.15 33.57 24.15 33.72 24.1C34.76 23.8 35.4 22.76 35.16 21.66C33.92 16.85 29.55 13.47 24.6 13.47C19.64 13.47 15.28 16.85 14.04 21.66C13.65 22.76 14.29 23.85 15.38 24.1Z" />
</svg>